<svg width="23" height="29" viewBox="0 0 23 29" fill="none" xmlns="http://www.w3.org/2000/svg">
<path fill-rule="evenodd" clip-rule="evenodd" d="M10.375 2.41667C9.75366 2.41667 9.25 2.95766 9.25 3.625V4.83333H13.75V3.625C13.75 2.95766 13.2463 2.41667 12.625 2.41667H10.375ZM16 4.83333V3.625C16 1.62297 14.489 0 12.625 0H10.375C8.51104 0 7 1.62297 7 3.625V4.83333H1.375C0.753685 4.83333 0.25 5.37433 0.25 6.04167C0.25 6.70901 0.753685 7.25 1.375 7.25H1.49308L3.40948 25.7753C3.59941 27.6111 5.04412 29 6.76385 29H16.2361C17.9559 29 19.4007 27.6111 19.5906 25.7753L21.5069 7.25H21.625C22.2463 7.25 22.75 6.70901 22.75 6.04167C22.75 5.37433 22.2463 4.83333 21.625 4.83333H16ZM19.243 7.25H3.75692L5.64572 25.5084C5.70903 26.1204 6.19061 26.5833 6.76385 26.5833H16.2361C16.8094 26.5833 17.2909 26.1204 17.3543 25.5084L19.243 7.25ZM9.25 10.875C9.87134 10.875 10.375 11.416 10.375 12.0833V21.75C10.375 22.4174 9.87134 22.9583 9.25 22.9583C8.62868 22.9583 8.125 22.4174 8.125 21.75V12.0833C8.125 11.416 8.62868 10.875 9.25 10.875ZM13.75 10.875C14.3713 10.875 14.875 11.416 14.875 12.0833V21.75C14.875 22.4174 14.3713 22.9583 13.75 22.9583C13.1287 22.9583 12.625 22.4174 12.625 21.75V12.0833C12.625 11.416 13.1287 10.875 13.75 10.875Z" fill="#BB0909"/>
</svg>
